<svg id="Layer_1" enable-background="new 0 0 510.003 510.003" height="512" viewBox="0 0 510.003 510.003" width="512" xmlns="http://www.w3.org/2000/svg"><g><path d="m119.654 91.503c0-18.113 2.495-36.048 7.415-53.307l10.766-37.761-33.199 20.965c-122.63 76.125-140.274 252.109-35.849 351-22.663 2.795-40.773 20.505-44.154 42.984-28.173 17.1-33.1 56.186-9.627 79.693 9.64 9.625 22.445 14.926 36.059 14.926h120c38.615 0 63.12-41.444 44.934-75.162 52.587 1.883 102.732-14.136 144.224-45.916 38.097-29.179 66.279-70.528 79.358-116.432l10.76-37.764-33.197 20.972c-127.172 80.34-297.49-10.325-297.49-164.198zm51.41 388.5h-120c-5.608 0-10.887-2.186-14.846-6.139-10.92-10.936-6.684-29.555 7.884-34.682l10.67-3.754c-.696-11.846-.708-11.397-.708-12.426 0-11.579 9.421-21 21-21 10.526 0 14.889 6.786 24.593 13.178 7.816-9.916 9.701-14.309 16.094-18.936 20.015-14.517 48.333-2.326 51.948 21.837.766 6.852.017 8.707-.166 17.433 8.202 3.259 13.237 3.501 18.377 8.627 13.18 13.085 3.729 35.902-14.846 35.862zm23.677-77.209c-12.199-35.985-53.422-52.84-87.029-36.565-95.538-69.338-103.837-216.926-17.036-296.23-17.397 166.919 154.425 292.027 306.047 229.649-37.307 72.308-117.805 115.926-201.982 103.146z"/><path d="m479.632 67.788c-4.795-39.839-46.945-63.82-83.562-47.808-45.02-41.981-119.796-13.9-125.669 47.871-52.815 30.382-32.098 111.504 29.662 112.152h150c16.026 0 31.094-6.241 42.427-17.574 28.118-27.202 21.105-76.068-12.858-94.641zm-29.568 82.215h-150c-26.559 0-40.061-32.367-21.214-51.213 7.072-7.071 14.2-7.678 21.783-10.778-.527-11.471-.569-11.398-.569-13.009 0-42.934 55.017-61.584 81.009-26.998l9.003 11.98c9.055-5.789 15.512-14.982 29.988-14.982 17.396 0 30.988 14.811 29.957 31.635l-.684 11.299 10.679 3.756c31.52 11.687 23.726 57.769-9.952 58.31z"/></g></svg>